# xmcd CD database file
#
# Track frame offsets:
#	150
#	900
#	26722
#	43424
#	60591
#	80247
#	102437
#
# Disc length: 1812 seconds
#
# Revision: 0
# Processed by: cddbd v1.5.2PL0 Copyright (c) Steve Scherf et al.
# Submitted via: CDex 1.70beta2
#
DISCID=55071207
DTITLE=Gabì - Jazz's Canvas
DYEAR=1900
DGENRE=Jazz
TTITLE0=Data Track
TTITLE1=Alone Together
TTITLE2=The Nearness of You
TTITLE3=A Foggy Day
TTITLE4=My Funny Valentine
TTITLE5=Lover Man
TTITLE6=The Man I Love
EXTD=
EXTT0=
EXTT1=
EXTT2=
EXTT3=
EXTT4=
EXTT5=
EXTT6=
PLAYORDER=
